<svg width="268" height="242" viewBox="0 0 268 242" fill="none" xmlns="http://www.w3.org/2000/svg">
<g filter="url(#filter0_d)">
<path fill-rule="evenodd" clip-rule="evenodd" d="M33.1806 167.049C29.1994 167.049 24.4745 167.89 19.3121 173.853V157.165C19.3121 152.949 15.8778 149.52 11.6561 149.52C7.43429 149.52 4 152.949 4 157.165V211.588C4 215.804 7.43429 219.233 11.6561 219.233C15.8778 219.233 19.3121 215.804 19.3121 211.588V190.465C19.3121 184.393 22.1996 181.04 27.4604 181.04C32.6118 181.04 35.3242 184.295 35.3242 190.465V211.588C35.3242 215.804 38.7585 219.233 42.9803 219.233C47.2021 219.233 50.6364 215.804 50.6364 211.588V186.031C50.6254 174.148 44.1069 167.049 33.1806 167.049ZM77.1482 167.42C70.914 167.42 65.9704 168.229 61.1252 170.042C58.6096 170.981 56.9253 173.406 56.9253 176.071C56.9253 179.631 59.758 182.416 63.3783 182.416C64.122 182.416 64.7454 182.307 65.5985 182.023C68.5406 181.105 71.6468 180.669 75.1139 180.669C83.3387 180.669 85.0887 185.201 85.1105 189.035C82.2559 188.106 78.6576 187.254 73.6374 187.254C60.5564 187.254 53.0535 193.229 53.0535 203.659V203.845C53.0535 213.27 60.1408 219.605 70.6843 219.605C76.6232 219.605 81.3809 217.803 85.1762 214.111C85.8214 216.809 88.4136 219.244 92.3947 219.244C96.5837 219.244 99.8649 216.012 99.8649 211.883V189.351C99.8649 182.263 98.0055 176.802 94.3197 173.133C90.5135 169.343 84.7387 167.42 77.1482 167.42ZM74.928 208.65C70.5859 208.65 67.8953 206.597 67.8953 203.288V203.102C67.8953 199.159 71.1984 196.909 76.9623 196.909C79.9154 196.909 82.8575 197.488 85.2965 198.537V200.623C85.2965 205.341 81.0309 208.65 74.928 208.65ZM120.383 173.984C124.342 169.321 129.22 167.049 135.258 167.049C146.775 167.049 158.423 176.038 158.423 193.229V193.414C158.423 201.333 155.984 208.039 151.379 212.822C147.168 217.202 141.448 219.605 135.258 219.605C129.297 219.605 124.561 217.573 120.46 213.248V226.355C120.46 230.57 117.025 234 112.804 234C108.582 234 105.148 230.57 105.148 226.355V175.066C105.148 170.85 108.582 167.42 112.804 167.42C116.664 167.42 119.858 170.282 120.383 173.984ZM143.122 193.229C143.122 185.813 138.189 180.21 131.648 180.21C125.064 180.21 120.274 185.682 120.274 193.229V193.414C120.274 200.961 125.053 206.433 131.648 206.433C138.298 206.433 143.122 200.961 143.122 193.414V193.229ZM192.066 167.049C186.028 167.049 181.15 169.321 177.191 173.984C176.666 170.282 173.472 167.42 169.612 167.42C165.39 167.42 161.956 170.85 161.956 175.066V226.355C161.956 230.57 165.39 234 169.612 234C173.833 234 177.268 230.57 177.268 226.355V213.248C181.369 217.573 186.105 219.605 192.066 219.605C198.256 219.605 203.976 217.202 208.187 212.822C212.792 208.039 215.231 201.333 215.231 193.414V193.229C215.231 176.038 203.583 167.049 192.066 167.049ZM188.456 180.21C194.997 180.21 199.93 185.813 199.93 193.229V193.414C199.93 200.961 195.106 206.433 188.456 206.433C181.861 206.433 177.082 200.961 177.082 193.414V193.229C177.082 185.682 181.872 180.21 188.456 180.21ZM249.388 173.187C250.81 169.408 253.347 167.42 256.727 167.42C260.806 167.42 264.011 170.533 264 174.487C264 175.634 263.628 177.294 263.3 178.058L246.03 219.474C241.688 229.97 237.16 233.694 228.727 233.694C225.752 233.694 223.467 233.301 220.842 232.362C219.037 231.706 215.996 230.002 215.996 225.961C215.996 221.986 219.135 219.616 222.165 219.616C223.368 219.616 224.09 219.823 224.67 220.02C225.862 220.391 226.518 220.544 227.426 220.544C229.723 220.544 230.685 220.173 231.844 217.956L232.194 217.126L215.395 178.255C215.012 177.294 214.607 175.808 214.607 174.771C214.607 170.577 217.856 167.409 222.165 167.409C225.72 167.409 228.126 169.266 229.504 173.089L239.621 200.251L249.388 173.187Z" fill="white"/>
<path d="M188.889 32.1055V76.7781C188.889 94.5087 174.406 108.884 156.542 108.884H153.271L136.563 125.456C135.909 126.105 135.003 126.517 134 126.517C133.073 126.517 132.233 126.181 131.59 125.618L131.306 125.337L131.295 125.326L114.729 108.884H111.447C93.594 108.884 79.1111 94.5087 79.1111 76.7781V32.1055C79.1111 14.3749 93.594 0 111.458 0H156.542C174.406 0 188.889 14.3749 188.889 32.1055Z" fill="#FFD666"/>
<path d="M104.671 61.8857C101.486 61.8857 99.6711 65.4875 101.519 68.0881C108.703 78.2186 120.583 84.8235 134.005 84.8235C147.428 84.8235 159.297 78.2077 166.481 68.0881C168.329 65.4875 166.514 61.8857 163.329 61.8857H104.671Z" fill="white"/>
<path d="M123.321 46.554H104.106V36.935C104.106 31.6249 108.41 27.3159 113.714 27.3159C119.017 27.3159 123.321 31.6249 123.321 36.935V46.554Z" fill="white"/>
<path d="M163.905 46.554H144.689V36.935C144.689 31.6249 148.993 27.3159 154.297 27.3159C159.601 27.3159 163.905 31.6249 163.905 36.935V46.554Z" fill="white"/>
<path d="M104.671 61.8857C101.486 61.8857 99.6711 65.4875 101.519 68.0881C108.703 78.2186 120.583 84.8235 134.005 84.8235C147.428 84.8235 159.297 78.2077 166.481 68.0881C168.329 65.4875 166.514 61.8857 163.329 61.8857H104.671Z" fill="white"/>
<path d="M123.321 46.554H104.106V36.935C104.106 31.6249 108.41 27.3159 113.714 27.3159C119.017 27.3159 123.321 31.6249 123.321 36.935V46.554Z" fill="white"/>
<path d="M163.905 46.554H144.689V36.935C144.689 31.6249 148.993 27.3159 154.297 27.3159C159.601 27.3159 163.905 31.6249 163.905 36.935V46.554Z" fill="white"/>
</g>
<defs>
<filter id="filter0_d" x="0" y="0" width="268" height="242" filterUnits="userSpaceOnUse" color-interpolation-filters="sRGB">
<feFlood flood-opacity="0" result="BackgroundImageFix"/>
<feColorMatrix in="SourceAlpha" type="matrix" values="0 0 0 0 0 0 0 0 0 0 0 0 0 0 0 0 0 0 127 0"/>
<feOffset dy="4"/>
<feGaussianBlur stdDeviation="2"/>
<feColorMatrix type="matrix" values="0 0 0 0 0 0 0 0 0 0 0 0 0 0 0 0 0 0 0.25 0"/>
<feBlend mode="normal" in2="BackgroundImageFix" result="effect1_dropShadow"/>
<feBlend mode="normal" in="SourceGraphic" in2="effect1_dropShadow" result="shape"/>
</filter>
</defs>
</svg>
